<svg preserveAspectRatio="none" width="100%" height="100%" overflow="visible" style="display: block;" viewBox="0 0 24 24" fill="none" xmlns="http://www.w3.org/2000/svg">
<g id="SVG">
<path id="Vector" d="M2.5 17C1.80142 13.7033 1.80142 10.2967 2.5 7C2.59179 6.66521 2.76914 6.36008 3.01461 6.11461C3.26008 5.86914 3.56521 5.69179 3.9 5.6C9.26345 4.71146 14.7366 4.71146 20.1 5.6C20.4348 5.69179 20.7399 5.86914 20.9854 6.11461C21.2309 6.36008 21.4082 6.66521 21.5 7C22.1986 10.2967 22.1986 13.7033 21.5 17C21.4082 17.3348 21.2309 17.6399 20.9854 17.8854C20.7399 18.1309 20.4348 18.3082 20.1 18.4C14.7366 19.2887 9.26343 19.2887 3.9 18.4C3.56521 18.3082 3.26008 18.1309 3.01461 17.8854C2.76914 17.6399 2.59179 17.3348 2.5 17Z" stroke="var(--stroke-0, white)" stroke-width="2" stroke-linecap="round" stroke-linejoin="round"/>
<path id="Vector_2" d="M10 15L15 12L10 9V15Z" stroke="var(--stroke-0, white)" stroke-width="2" stroke-linecap="round" stroke-linejoin="round"/>
</g>
</svg>
