<svg preserveAspectRatio="none" width="100%" height="100%" overflow="visible" style="display: block;" viewBox="0 0 24 24" fill="none" xmlns="http://www.w3.org/2000/svg">
<g id="SVG">
<path id="Vector" d="M8 22C8.55228 22 9 21.5523 9 21C9 20.4477 8.55228 20 8 20C7.44772 20 7 20.4477 7 21C7 21.5523 7.44772 22 8 22Z" stroke="var(--stroke-0, #364153)" stroke-width="2" stroke-linecap="round" stroke-linejoin="round"/>
<path id="Vector_2" d="M19 22C19.5523 22 20 21.5523 20 21C20 20.4477 19.5523 20 19 20C18.4477 20 18 20.4477 18 21C18 21.5523 18.4477 22 19 22Z" stroke="var(--stroke-0, #364153)" stroke-width="2" stroke-linecap="round" stroke-linejoin="round"/>
<path id="Vector_3" d="M2.05 2.05H4.05L6.71 14.47C6.80758 14.9249 7.06067 15.3315 7.42571 15.6199C7.79075 15.9082 8.24491 16.0603 8.71 16.05H18.49C18.9452 16.0493 19.3865 15.8933 19.741 15.6078C20.0956 15.3224 20.3421 14.9245 20.44 14.48L22.09 7.05H5.12" stroke="var(--stroke-0, #364153)" stroke-width="2" stroke-linecap="round" stroke-linejoin="round"/>
</g>
</svg>
