<svg preserveAspectRatio="none" width="100%" height="100%" overflow="visible" style="display: block;" viewBox="0 0 16 16" fill="none" xmlns="http://www.w3.org/2000/svg">
<g id="SVG" clip-path="url(#clip0_0_30)">
<path id="Vector" d="M9 4.66667C9.1841 4.66667 9.33333 4.51743 9.33333 4.33333C9.33333 4.14924 9.1841 4 9 4C8.81591 4 8.66667 4.14924 8.66667 4.33333C8.66667 4.51743 8.81591 4.66667 9 4.66667Z" fill="var(--fill-0, #D1D5DC)" stroke="var(--stroke-0, #D1D5DC)" stroke-width="1.33333" stroke-linecap="round" stroke-linejoin="round"/>
<path id="Vector_2" d="M11.6667 7.33333C11.8508 7.33333 12 7.18409 12 7C12 6.8159 11.8508 6.66667 11.6667 6.66667C11.4826 6.66667 11.3333 6.8159 11.3333 7C11.3333 7.18409 11.4826 7.33333 11.6667 7.33333Z" fill="var(--fill-0, #D1D5DC)" stroke="var(--stroke-0, #D1D5DC)" stroke-width="1.33333" stroke-linecap="round" stroke-linejoin="round"/>
<path id="Vector_3" d="M5.66667 5.33333C5.85076 5.33333 6 5.18409 6 5C6 4.8159 5.85076 4.66667 5.66667 4.66667C5.48257 4.66667 5.33333 4.8159 5.33333 5C5.33333 5.18409 5.48257 5.33333 5.66667 5.33333Z" fill="var(--fill-0, #D1D5DC)" stroke="var(--stroke-0, #D1D5DC)" stroke-width="1.33333" stroke-linecap="round" stroke-linejoin="round"/>
<path id="Vector_4" d="M4.33333 8.66667C4.51743 8.66667 4.66667 8.51743 4.66667 8.33333C4.66667 8.14924 4.51743 8 4.33333 8C4.14924 8 4 8.14924 4 8.33333C4 8.51743 4.14924 8.66667 4.33333 8.66667Z" fill="var(--fill-0, #D1D5DC)" stroke="var(--stroke-0, #D1D5DC)" stroke-width="1.33333" stroke-linecap="round" stroke-linejoin="round"/>
<path id="Vector_5" d="M8 1.33333C4.33333 1.33333 1.33333 4.33333 1.33333 8C1.33333 11.6667 4.33333 14.6667 8 14.6667C8.61733 14.6667 9.09867 14.1693 9.09867 13.5413C9.09867 13.25 8.97867 12.9847 8.80733 12.7913C8.614 12.5987 8.51533 12.3567 8.51533 12.0413C8.51281 11.8946 8.53984 11.7489 8.59483 11.6128C8.64982 11.4768 8.73163 11.3532 8.8354 11.2494C8.93917 11.1456 9.06276 11.0638 9.19882 11.0088C9.33487 10.9538 9.48061 10.9268 9.62733 10.9293H10.958C12.992 10.9293 14.6613 9.26067 14.6613 7.22667C14.6433 4.008 11.6407 1.33333 8 1.33333Z" stroke="var(--stroke-0, #D1D5DC)" stroke-width="1.33333" stroke-linecap="round" stroke-linejoin="round"/>
</g>
<defs>
<clipPath id="clip0_0_30">
<rect width="16" height="16" fill="white"/>
</clipPath>
</defs>
</svg>
