<svg preserveAspectRatio="none" width="100%" height="100%" overflow="visible" style="display: block;" viewBox="0 0 32 32" fill="none" xmlns="http://www.w3.org/2000/svg">
<g id="SVG">
<path id="Vector" d="M3.6 13.7333C3.30127 14.0318 3.06428 14.3861 2.90259 14.7762C2.7409 15.1663 2.65767 15.5844 2.65767 16.0067C2.65767 16.4289 2.7409 16.847 2.90259 17.2371C3.06428 17.6272 3.30127 17.9816 3.6 18.28L13.72 28.4C14.0184 28.6987 14.3728 28.9357 14.7629 29.0974C15.153 29.2591 15.5711 29.3423 15.9933 29.3423C16.4156 29.3423 16.8337 29.2591 17.2238 29.0974C17.6139 28.9357 17.9682 28.6987 18.2667 28.4L28.3867 18.28C28.6854 17.9816 28.9224 17.6272 29.0841 17.2371C29.2458 16.847 29.329 16.4289 29.329 16.0067C29.329 15.5844 29.2458 15.1663 29.0841 14.7762C28.9224 14.3861 28.6854 14.0318 28.3867 13.7333L18.2667 3.61333C17.9682 3.3146 17.6139 3.07761 17.2238 2.91592C16.8337 2.75423 16.4156 2.67101 15.9933 2.67101C15.5711 2.67101 15.153 2.75423 14.7629 2.91592C14.3728 3.07761 14.0184 3.3146 13.72 3.61333L3.6 13.7333Z" stroke="var(--stroke-0, #9810FA)" stroke-width="2.66667" stroke-linecap="round" stroke-linejoin="round"/>
</g>
</svg>
